solid World
  facet normal -1.000000 0.000000 0.000000
    outer loop
      vertex -2800.000000 26500.000000 -15500.000000
      vertex -2800.000000 -3500.000000 -15500.000000
      vertex -2800.000000 26500.000000 14500.000000
    endloop
  endfacet
  facet normal -1.000000 -0.000000 0.000000
    outer loop
      vertex -2800.000000 26500.000000 14500.000000
      vertex -2800.000000 -3500.000000 -15500.000000
      vertex -2800.000000 -3500.000000 14500.000000
    endloop
  endfacet
  facet normal 1.000000 0.000000 -0.000000
    outer loop
      vertex 17200.000000 26500.000000 -15500.000000
      vertex 17200.000000 26500.000000 14500.000000
      vertex 17200.000000 -3500.000000 -15500.000000
    endloop
  endfacet
  facet normal 1.000000 0.000000 0.000000
    outer loop
      vertex 17200.000000 26500.000000 14500.000000
      vertex 17200.000000 -3500.000000 14500.000000
      vertex 17200.000000 -3500.000000 -15500.000000
    endloop
  endfacet
  facet normal 0.000000 -1.000000 0.000000
    outer loop
      vertex -2800.000000 -3500.000000 -15500.000000
      vertex 17200.000000 -3500.000000 -15500.000000
      vertex 17200.000000 -3500.000000 14500.000000
    endloop
  endfacet
  facet normal 0.000000 -1.000000 0.000000
    outer loop
      vertex -2800.000000 -3500.000000 14500.000000
      vertex -2800.000000 -3500.000000 -15500.000000
      vertex 17200.000000 -3500.000000 14500.000000
    endloop
  endfacet
  facet normal 0.000000 1.000000 0.000000
    outer loop
      vertex -2800.000000 26500.000000 -15500.000000
      vertex 17200.000000 26500.000000 14500.000000
      vertex 17200.000000 26500.000000 -15500.000000
    endloop
  endfacet
  facet normal -0.000000 1.000000 0.000000
    outer loop
      vertex -2800.000000 26500.000000 14500.000000
      vertex 17200.000000 26500.000000 14500.000000
      vertex -2800.000000 26500.000000 -15500.000000
    endloop
  endfacet
  facet normal 0.000000 0.000000 -1.000000
    outer loop
      vertex -2800.000000 -3500.000000 -15500.000000
      vertex -2800.000000 26500.000000 -15500.000000
      vertex 17200.000000 26500.000000 -15500.000000
    endloop
  endfacet
  facet normal 0.000000 0.000000 -1.000000
    outer loop
      vertex 17200.000000 -3500.000000 -15500.000000
      vertex -2800.000000 -3500.000000 -15500.000000
      vertex 17200.000000 26500.000000 -15500.000000
    endloop
  endfacet
  facet normal 0.000000 0.000000 1.000000
    outer loop
      vertex -2800.000000 -3500.000000 14500.000000
      vertex 17200.000000 26500.000000 14500.000000
      vertex -2800.000000 26500.000000 14500.000000
    endloop
  endfacet
  facet normal 0.000000 -0.000000 1.000000
    outer loop
      vertex 17200.000000 -3500.000000 14500.000000
      vertex 17200.000000 26500.000000 14500.000000
      vertex -2800.000000 -3500.000000 14500.000000
    endloop
  endfacet
endsolid Mesh
