solid Руберойд_помещение
   facet normal 1.665335e-16 1.000000e+00 0.000000e+00
      outer loop
         vertex 1.386912e+04 2.115260e+04 8.818000e+03
         vertex 7.912483e+01 2.115260e+04 8.818000e+03
         vertex 1.386912e+04 2.115260e+04 8.828000e+03
      endloop
   endfacet
   facet normal 1.665335e-16 1.000000e+00 0.000000e+00
      outer loop
         vertex 1.386912e+04 2.115260e+04 8.828000e+03
         vertex 7.912483e+01 2.115260e+04 8.818000e+03
         vertex 7.912483e+01 2.115260e+04 8.828000e+03
      endloop
   endfacet
   facet normal 1.000000e+00 -5.551115e-17 0.000000e+00
      outer loop
         vertex 1.386912e+04 1.525993e+02 8.818000e+03
         vertex 1.386912e+04 2.115260e+04 8.818000e+03
         vertex 1.386912e+04 1.525993e+02 8.828000e+03
      endloop
   endfacet
   facet normal 1.000000e+00 -5.551115e-17 0.000000e+00
      outer loop
         vertex 1.386912e+04 1.525993e+02 8.828000e+03
         vertex 1.386912e+04 2.115260e+04 8.818000e+03
         vertex 1.386912e+04 2.115260e+04 8.828000e+03
      endloop
   endfacet
   facet normal -1.665335e-16 -1.000000e+00 0.000000e+00
      outer loop
         vertex 7.912483e+01 1.525993e+02 8.818000e+03
         vertex 1.386912e+04 1.525993e+02 8.818000e+03
         vertex 7.912483e+01 1.525993e+02 8.828000e+03
      endloop
   endfacet
   facet normal -1.665335e-16 -1.000000e+00 0.000000e+00
      outer loop
         vertex 7.912483e+01 1.525993e+02 8.828000e+03
         vertex 1.386912e+04 1.525993e+02 8.818000e+03
         vertex 1.386912e+04 1.525993e+02 8.828000e+03
      endloop
   endfacet
   facet normal -1.000000e+00 5.551115e-17 0.000000e+00
      outer loop
         vertex 7.912483e+01 2.115260e+04 8.818000e+03
         vertex 7.912483e+01 1.525993e+02 8.818000e+03
         vertex 7.912483e+01 2.115260e+04 8.828000e+03
      endloop
   endfacet
   facet normal -1.000000e+00 5.551115e-17 0.000000e+00
      outer loop
         vertex 7.912483e+01 2.115260e+04 8.828000e+03
         vertex 7.912483e+01 1.525993e+02 8.818000e+03
         vertex 7.912483e+01 1.525993e+02 8.828000e+03
      endloop
   endfacet
   facet normal 0.000000e+00 0.000000e+00 -1.000000e+00
      outer loop
         vertex 1.386912e+04 1.525993e+02 8.818000e+03
         vertex 7.912483e+01 1.525993e+02 8.818000e+03
         vertex 1.386912e+04 2.115260e+04 8.818000e+03
      endloop
   endfacet
   facet normal 0.000000e+00 -0.000000e+00 -1.000000e+00
      outer loop
         vertex 1.386912e+04 2.115260e+04 8.818000e+03
         vertex 7.912483e+01 1.525993e+02 8.818000e+03
         vertex 7.912483e+01 2.115260e+04 8.818000e+03
      endloop
   endfacet
   facet normal 0.000000e+00 0.000000e+00 1.000000e+00
      outer loop
         vertex 7.912483e+01 1.525993e+02 8.828000e+03
         vertex 1.386912e+04 1.525993e+02 8.828000e+03
         vertex 7.912483e+01 2.115260e+04 8.828000e+03
      endloop
   endfacet
   facet normal 0.000000e+00 0.000000e+00 1.000000e+00
      outer loop
         vertex 7.912483e+01 2.115260e+04 8.828000e+03
         vertex 1.386912e+04 1.525993e+02 8.828000e+03
         vertex 1.386912e+04 2.115260e+04 8.828000e+03
      endloop
   endfacet
endsolid