solid Кирпич
  facet normal 0.000000 0.000000 -1.000000
    outer loop
      vertex 4019.999023 8350.000000 14991.650391
      vertex 1519.999023 8350.000000 14991.650391
      vertex 4019.999023 9910.000000 14991.650391
    endloop
  endfacet
  facet normal -0.000000 0.000000 -1.000000
    outer loop
      vertex 4019.999023 9910.000000 14991.650391
      vertex 1519.999023 8350.000000 14991.650391
      vertex 1519.999023 9910.000000 14991.650391
    endloop
  endfacet
  facet normal -1.000000 0.000000 0.000000
    outer loop
      vertex 1519.999023 8350.000000 14991.650391
      vertex 1519.999023 8350.000000 15111.650391
      vertex 1519.999023 9910.000000 14991.650391
    endloop
  endfacet
  facet normal -1.000000 0.000000 0.000000
    outer loop
      vertex 1519.999023 9910.000000 14991.650391
      vertex 1519.999023 8350.000000 15111.650391
      vertex 1519.999023 9910.000000 15111.650391
    endloop
  endfacet
  facet normal 0.000000 0.000000 1.000000
    outer loop
      vertex 1519.999023 8350.000000 15111.650391
      vertex 4019.999023 8350.000000 15111.650391
      vertex 1519.999023 9910.000000 15111.650391
    endloop
  endfacet
  facet normal -0.000000 0.000000 1.000000
    outer loop
      vertex 1519.999023 9910.000000 15111.650391
      vertex 4019.999023 8350.000000 15111.650391
      vertex 4019.999023 9910.000000 15111.650391
    endloop
  endfacet
  facet normal 1.000000 -0.000000 0.000000
    outer loop
      vertex 4019.999023 8350.000000 15111.650391
      vertex 4019.999023 8350.000000 14991.650391
      vertex 4019.999023 9910.000000 15111.650391
    endloop
  endfacet
  facet normal 1.000000 0.000000 0.000000
    outer loop
      vertex 4019.999023 9910.000000 15111.650391
      vertex 4019.999023 8350.000000 14991.650391
      vertex 4019.999023 9910.000000 14991.650391
    endloop
  endfacet
  facet normal -0.000000 -1.000000 -0.000000
    outer loop
      vertex 4019.999023 8350.000000 15111.650391
      vertex 1519.999023 8350.000000 15111.650391
      vertex 4019.999023 8350.000000 14991.650391
    endloop
  endfacet
  facet normal 0.000000 -1.000000 0.000000
    outer loop
      vertex 4019.999023 8350.000000 14991.650391
      vertex 1519.999023 8350.000000 15111.650391
      vertex 1519.999023 8350.000000 14991.650391
    endloop
  endfacet
  facet normal -0.000000 1.000000 0.000000
    outer loop
      vertex 1519.999023 9910.000000 15111.650391
      vertex 4019.999023 9910.000000 15111.650391
      vertex 1519.999023 9910.000000 14991.650391
    endloop
  endfacet
  facet normal 0.000000 1.000000 0.000000
    outer loop
      vertex 1519.999023 9910.000000 14991.650391
      vertex 4019.999023 9910.000000 15111.650391
      vertex 4019.999023 9910.000000 14991.650391
    endloop
  endfacet
  facet normal 0.000000 -1.000000 0.000000
    outer loop
      vertex 80.000000 8800.000000 5416.649902
      vertex 80.000000 8800.000000 4916.649902
      vertex 200.000000 8800.000000 5416.649902
    endloop
  endfacet
  facet normal 0.000000 -1.000000 -0.000000
    outer loop
      vertex 200.000000 8800.000000 5416.649902
      vertex 80.000000 8800.000000 4916.649902
      vertex 200.000000 8800.000000 4916.649902
    endloop
  endfacet
  facet normal -0.000000 0.000000 1.000000
    outer loop
      vertex 80.000000 9300.000000 5416.649902
      vertex 80.000000 8800.000000 5416.649902
      vertex 200.000000 9300.000000 5416.649902
    endloop
  endfacet
  facet normal 0.000000 0.000000 1.000000
    outer loop
      vertex 200.000000 9300.000000 5416.649902
      vertex 80.000000 8800.000000 5416.649902
      vertex 200.000000 8800.000000 5416.649902
    endloop
  endfacet
  facet normal 0.000000 1.000000 0.000000
    outer loop
      vertex 80.000000 9300.000000 4916.649902
      vertex 80.000000 9300.000000 5416.649902
      vertex 200.000000 9300.000000 4916.649902
    endloop
  endfacet
  facet normal 0.000000 1.000000 -0.000000
    outer loop
      vertex 200.000000 9300.000000 4916.649902
      vertex 80.000000 9300.000000 5416.649902
      vertex 200.000000 9300.000000 5416.649902
    endloop
  endfacet
  facet normal 0.000000 0.000000 -1.000000
    outer loop
      vertex 80.000000 8800.000000 4916.649902
      vertex 80.000000 9300.000000 4916.649902
      vertex 200.000000 8800.000000 4916.649902
    endloop
  endfacet
  facet normal 0.000000 0.000000 -1.000000
    outer loop
      vertex 200.000000 8800.000000 4916.649902
      vertex 80.000000 9300.000000 4916.649902
      vertex 200.000000 9300.000000 4916.649902
    endloop
  endfacet
  facet normal -1.000000 -0.000000 -0.000000
    outer loop
      vertex 80.000000 9300.000000 5416.649902
      vertex 80.000000 9300.000000 4916.649902
      vertex 80.000000 8800.000000 5416.649902
    endloop
  endfacet
  facet normal -1.000000 0.000000 0.000000
    outer loop
      vertex 80.000000 8800.000000 5416.649902
      vertex 80.000000 9300.000000 4916.649902
      vertex 80.000000 8800.000000 4916.649902
    endloop
  endfacet
  facet normal 1.000000 0.000000 -0.000000
    outer loop
      vertex 200.000000 9300.000000 4916.649902
      vertex 200.000000 9300.000000 5416.649902
      vertex 200.000000 8800.000000 4916.649902
    endloop
  endfacet
  facet normal 1.000000 0.000000 0.000000
    outer loop
      vertex 200.000000 8800.000000 4916.649902
      vertex 200.000000 9300.000000 5416.649902
      vertex 200.000000 8800.000000 5416.649902
    endloop
  endfacet
  facet normal -0.000000 0.000000 1.000000
    outer loop
      vertex 80.000000 9300.000000 3416.649658
      vertex 80.000000 8800.000000 3416.649658
      vertex 200.000000 9300.000000 3416.649658
    endloop
  endfacet
  facet normal 0.000000 0.000000 1.000000
    outer loop
      vertex 200.000000 9300.000000 3416.649658
      vertex 80.000000 8800.000000 3416.649658
      vertex 200.000000 8800.000000 3416.649658
    endloop
  endfacet
  facet normal 0.000000 1.000000 0.000000
    outer loop
      vertex 80.000000 9300.000000 2916.649658
      vertex 80.000000 9300.000000 3416.649658
      vertex 200.000000 9300.000000 2916.649658
    endloop
  endfacet
  facet normal 0.000000 1.000000 -0.000000
    outer loop
      vertex 200.000000 9300.000000 2916.649658
      vertex 80.000000 9300.000000 3416.649658
      vertex 200.000000 9300.000000 3416.649658
    endloop
  endfacet
  facet normal 0.000000 0.000000 -1.000000
    outer loop
      vertex 80.000000 8800.000000 2916.649658
      vertex 80.000000 9300.000000 2916.649658
      vertex 200.000000 8800.000000 2916.649658
    endloop
  endfacet
  facet normal 0.000000 0.000000 -1.000000
    outer loop
      vertex 200.000000 8800.000000 2916.649658
      vertex 80.000000 9300.000000 2916.649658
      vertex 200.000000 9300.000000 2916.649658
    endloop
  endfacet
  facet normal 0.000000 -1.000000 0.000000
    outer loop
      vertex 80.000000 8800.000000 3416.649658
      vertex 80.000000 8800.000000 2916.649658
      vertex 200.000000 8800.000000 3416.649658
    endloop
  endfacet
  facet normal 0.000000 -1.000000 -0.000000
    outer loop
      vertex 200.000000 8800.000000 3416.649658
      vertex 80.000000 8800.000000 2916.649658
      vertex 200.000000 8800.000000 2916.649658
    endloop
  endfacet
  facet normal -1.000000 0.000000 0.000000
    outer loop
      vertex 80.000000 9300.000000 2916.649658
      vertex 80.000000 8800.000000 2916.649658
      vertex 80.000000 9300.000000 3416.649658
    endloop
  endfacet
  facet normal -1.000000 -0.000000 0.000000
    outer loop
      vertex 80.000000 9300.000000 3416.649658
      vertex 80.000000 8800.000000 2916.649658
      vertex 80.000000 8800.000000 3416.649658
    endloop
  endfacet
  facet normal 1.000000 0.000000 0.000000
    outer loop
      vertex 200.000000 8800.000000 2916.649658
      vertex 200.000000 9300.000000 2916.649658
      vertex 200.000000 8800.000000 3416.649658
    endloop
  endfacet
  facet normal 1.000000 -0.000000 0.000000
    outer loop
      vertex 200.000000 8800.000000 3416.649658
      vertex 200.000000 9300.000000 2916.649658
      vertex 200.000000 9300.000000 3416.649658
    endloop
  endfacet
  facet normal -1.000000 0.000000 0.000000
    outer loop
      vertex 200.000000 8350.000000 14991.650391
      vertex 200.000000 8350.000000 15111.650391
      vertex 200.000000 9910.000000 14991.650391
    endloop
  endfacet
  facet normal -1.000000 0.000000 0.000000
    outer loop
      vertex 200.000000 9910.000000 14991.650391
      vertex 200.000000 8350.000000 15111.650391
      vertex 200.000000 9910.000000 15111.650391
    endloop
  endfacet
  facet normal 0.000000 0.000000 1.000000
    outer loop
      vertex 200.000000 8350.000000 15111.650391
      vertex 990.000000 8350.000000 15111.650391
      vertex 200.000000 9910.000000 15111.650391
    endloop
  endfacet
  facet normal -0.000000 0.000000 1.000000
    outer loop
      vertex 200.000000 9910.000000 15111.650391
      vertex 990.000000 8350.000000 15111.650391
      vertex 990.000000 9910.000000 15111.650391
    endloop
  endfacet
  facet normal 1.000000 -0.000000 0.000000
    outer loop
      vertex 990.000000 8350.000000 15111.650391
      vertex 990.000000 8350.000000 14991.650391
      vertex 990.000000 9910.000000 15111.650391
    endloop
  endfacet
  facet normal 1.000000 0.000000 0.000000
    outer loop
      vertex 990.000000 9910.000000 15111.650391
      vertex 990.000000 8350.000000 14991.650391
      vertex 990.000000 9910.000000 14991.650391
    endloop
  endfacet
  facet normal 0.000000 0.000000 -1.000000
    outer loop
      vertex 990.000000 8350.000000 14991.650391
      vertex 200.000000 8350.000000 14991.650391
      vertex 990.000000 9910.000000 14991.650391
    endloop
  endfacet
  facet normal -0.000000 0.000000 -1.000000
    outer loop
      vertex 990.000000 9910.000000 14991.650391
      vertex 200.000000 8350.000000 14991.650391
      vertex 200.000000 9910.000000 14991.650391
    endloop
  endfacet
  facet normal 0.000000 -1.000000 0.000000
    outer loop
      vertex 990.000000 8350.000000 14991.650391
      vertex 990.000000 8350.000000 15111.650391
      vertex 200.000000 8350.000000 14991.650391
    endloop
  endfacet
  facet normal 0.000000 -1.000000 0.000000
    outer loop
      vertex 200.000000 8350.000000 14991.650391
      vertex 990.000000 8350.000000 15111.650391
      vertex 200.000000 8350.000000 15111.650391
    endloop
  endfacet
  facet normal 0.000000 1.000000 -0.000000
    outer loop
      vertex 990.000000 9910.000000 14991.650391
      vertex 200.000000 9910.000000 14991.650391
      vertex 990.000000 9910.000000 15111.650391
    endloop
  endfacet
  facet normal 0.000000 1.000000 0.000000
    outer loop
      vertex 990.000000 9910.000000 15111.650391
      vertex 200.000000 9910.000000 14991.650391
      vertex 200.000000 9910.000000 15111.650391
    endloop
  endfacet
  facet normal 0.000000 -1.000000 0.000000
    outer loop
      vertex 21320.000000 8800.000000 9791.650391
      vertex 21320.000000 8800.000000 10191.650391
      vertex 21200.000000 8800.000000 9791.650391
    endloop
  endfacet
  facet normal 0.000000 -1.000000 0.000000
    outer loop
      vertex 21200.000000 8800.000000 9791.650391
      vertex 21320.000000 8800.000000 10191.650391
      vertex 21200.000000 8800.000000 10191.650391
    endloop
  endfacet
  facet normal -0.000000 -0.000000 -1.000000
    outer loop
      vertex 21320.000000 9200.000000 9791.650391
      vertex 21320.000000 8800.000000 9791.650391
      vertex 21200.000000 9200.000000 9791.650391
    endloop
  endfacet
  facet normal 0.000000 0.000000 -1.000000
    outer loop
      vertex 21200.000000 9200.000000 9791.650391
      vertex 21320.000000 8800.000000 9791.650391
      vertex 21200.000000 8800.000000 9791.650391
    endloop
  endfacet
  facet normal 0.000000 1.000000 0.000000
    outer loop
      vertex 21320.000000 9200.000000 10191.650391
      vertex 21320.000000 9200.000000 9791.650391
      vertex 21200.000000 9200.000000 10191.650391
    endloop
  endfacet
  facet normal 0.000000 1.000000 0.000000
    outer loop
      vertex 21200.000000 9200.000000 10191.650391
      vertex 21320.000000 9200.000000 9791.650391
      vertex 21200.000000 9200.000000 9791.650391
    endloop
  endfacet
  facet normal 0.000000 -0.000000 1.000000
    outer loop
      vertex 21320.000000 8800.000000 10191.650391
      vertex 21320.000000 9200.000000 10191.650391
      vertex 21200.000000 8800.000000 10191.650391
    endloop
  endfacet
  facet normal 0.000000 0.000000 1.000000
    outer loop
      vertex 21200.000000 8800.000000 10191.650391
      vertex 21320.000000 9200.000000 10191.650391
      vertex 21200.000000 9200.000000 10191.650391
    endloop
  endfacet
  facet normal 1.000000 0.000000 -0.000000
    outer loop
      vertex 21320.000000 9200.000000 9791.650391
      vertex 21320.000000 9200.000000 10191.650391
      vertex 21320.000000 8800.000000 9791.650391
    endloop
  endfacet
  facet normal 1.000000 0.000000 0.000000
    outer loop
      vertex 21320.000000 8800.000000 9791.650391
      vertex 21320.000000 9200.000000 10191.650391
      vertex 21320.000000 8800.000000 10191.650391
    endloop
  endfacet
  facet normal -1.000000 -0.000000 -0.000000
    outer loop
      vertex 21200.000000 9200.000000 10191.650391
      vertex 21200.000000 9200.000000 9791.650391
      vertex 21200.000000 8800.000000 10191.650391
    endloop
  endfacet
  facet normal -1.000000 0.000000 0.000000
    outer loop
      vertex 21200.000000 8800.000000 10191.650391
      vertex 21200.000000 9200.000000 9791.650391
      vertex 21200.000000 8800.000000 9791.650391
    endloop
  endfacet
endsolid Mesh
