solid Минераловатныеплиты
  facet normal 1.000000 -0.000000 0.000000
    outer loop
      vertex 21260.000000 10250.000000 14490.000000
      vertex 21260.000000 10250.000000 700.000000
      vertex 21260.000000 10650.000000 14490.000000
    endloop
  endfacet
  facet normal 1.000000 0.000000 0.000000
    outer loop
      vertex 21260.000000 10650.000000 14490.000000
      vertex 21260.000000 10250.000000 700.000000
      vertex 21260.000000 10650.000000 700.000000
    endloop
  endfacet
  facet normal 0.000000 0.000000 1.000000
    outer loop
      vertex 260.000000 10250.000000 14490.000000
      vertex 21260.000000 10250.000000 14490.000000
      vertex 260.000000 10650.000000 14490.000000
    endloop
  endfacet
  facet normal -0.000000 0.000000 1.000000
    outer loop
      vertex 260.000000 10650.000000 14490.000000
      vertex 21260.000000 10250.000000 14490.000000
      vertex 21260.000000 10650.000000 14490.000000
    endloop
  endfacet
  facet normal -1.000000 0.000000 0.000000
    outer loop
      vertex 260.000000 10250.000000 700.000000
      vertex 260.000000 10250.000000 14490.000000
      vertex 260.000000 10650.000000 700.000000
    endloop
  endfacet
  facet normal -1.000000 0.000000 0.000000
    outer loop
      vertex 260.000000 10650.000000 700.000000
      vertex 260.000000 10250.000000 14490.000000
      vertex 260.000000 10650.000000 14490.000000
    endloop
  endfacet
  facet normal 0.000000 0.000000 -1.000000
    outer loop
      vertex 21260.000000 10250.000000 700.000000
      vertex 260.000000 10250.000000 700.000000
      vertex 21260.000000 10650.000000 700.000000
    endloop
  endfacet
  facet normal -0.000000 0.000000 -1.000000
    outer loop
      vertex 21260.000000 10650.000000 700.000000
      vertex 260.000000 10250.000000 700.000000
      vertex 260.000000 10650.000000 700.000000
    endloop
  endfacet
  facet normal 0.000000 -1.000000 0.000000
    outer loop
      vertex 260.000000 10250.000000 14490.000000
      vertex 260.000000 10250.000000 700.000000
      vertex 21260.000000 10250.000000 14490.000000
    endloop
  endfacet
  facet normal 0.000000 -1.000000 -0.000000
    outer loop
      vertex 21260.000000 10250.000000 14490.000000
      vertex 260.000000 10250.000000 700.000000
      vertex 21260.000000 10250.000000 700.000000
    endloop
  endfacet
  facet normal 0.000000 1.000000 0.000000
    outer loop
      vertex 260.000000 10650.000000 700.000000
      vertex 260.000000 10650.000000 14490.000000
      vertex 21260.000000 10650.000000 700.000000
    endloop
  endfacet
  facet normal 0.000000 1.000000 -0.000000
    outer loop
      vertex 21260.000000 10650.000000 700.000000
      vertex 260.000000 10650.000000 14490.000000
      vertex 21260.000000 10650.000000 14490.000000
    endloop
  endfacet
endsolid Mesh
