solid Руберойд
  facet normal -1.000000 -0.000000 -0.000000
    outer loop
      vertex 270.000000 11000.000000 14490.000000
      vertex 270.000000 11000.000000 700.000000
      vertex 270.000000 10990.000000 14490.000000
    endloop
  endfacet
  facet normal -1.000000 0.000000 0.000000
    outer loop
      vertex 270.000000 10990.000000 14490.000000
      vertex 270.000000 11000.000000 700.000000
      vertex 270.000000 10990.000000 700.000000
    endloop
  endfacet
  facet normal 0.000000 0.000000 1.000000
    outer loop
      vertex 21270.000000 11000.000000 14490.000000
      vertex 270.000000 11000.000000 14490.000000
      vertex 21270.000000 10990.000000 14490.000000
    endloop
  endfacet
  facet normal 0.000000 0.000000 1.000000
    outer loop
      vertex 21270.000000 10990.000000 14490.000000
      vertex 270.000000 11000.000000 14490.000000
      vertex 270.000000 10990.000000 14490.000000
    endloop
  endfacet
  facet normal 1.000000 0.000000 -0.000000
    outer loop
      vertex 21270.000000 11000.000000 700.000000
      vertex 21270.000000 11000.000000 14490.000000
      vertex 21270.000000 10990.000000 700.000000
    endloop
  endfacet
  facet normal 1.000000 0.000000 0.000000
    outer loop
      vertex 21270.000000 10990.000000 700.000000
      vertex 21270.000000 11000.000000 14490.000000
      vertex 21270.000000 10990.000000 14490.000000
    endloop
  endfacet
  facet normal 0.000000 0.000000 -1.000000
    outer loop
      vertex 270.000000 11000.000000 700.000000
      vertex 21270.000000 11000.000000 700.000000
      vertex 270.000000 10990.000000 700.000000
    endloop
  endfacet
  facet normal 0.000000 0.000000 -1.000000
    outer loop
      vertex 270.000000 10990.000000 700.000000
      vertex 21270.000000 11000.000000 700.000000
      vertex 21270.000000 10990.000000 700.000000
    endloop
  endfacet
  facet normal 0.000000 1.000000 0.000000
    outer loop
      vertex 21270.000000 11000.000000 14490.000000
      vertex 21270.000000 11000.000000 700.000000
      vertex 270.000000 11000.000000 14490.000000
    endloop
  endfacet
  facet normal 0.000000 1.000000 0.000000
    outer loop
      vertex 270.000000 11000.000000 14490.000000
      vertex 21270.000000 11000.000000 700.000000
      vertex 270.000000 11000.000000 700.000000
    endloop
  endfacet
  facet normal 0.000000 -1.000000 0.000000
    outer loop
      vertex 21270.000000 10990.000000 700.000000
      vertex 21270.000000 10990.000000 14490.000000
      vertex 270.000000 10990.000000 700.000000
    endloop
  endfacet
  facet normal 0.000000 -1.000000 0.000000
    outer loop
      vertex 270.000000 10990.000000 700.000000
      vertex 21270.000000 10990.000000 14490.000000
      vertex 270.000000 10990.000000 14490.000000
    endloop
  endfacet
endsolid Mesh
