solid Фанера_токамак_основание
  facet normal -0.000000 0.000000 1.000000
    outer loop
      vertex 7794.634766 17310.968750 1094.093140
      vertex 6737.509766 16253.849609 1094.093140
      vertex 8190.615234 17310.968750 1094.093140
    endloop
  endfacet
  facet normal 0.000000 0.000000 1.000000
    outer loop
      vertex 8190.615234 17310.968750 1094.093140
      vertex 6737.509766 16253.849609 1094.093140
      vertex 6737.509766 15857.870117 1094.093140
    endloop
  endfacet
  facet normal 0.000000 0.000000 1.000000
    outer loop
      vertex 8190.615234 17310.968750 1094.093140
      vertex 6737.509766 15857.870117 1094.093140
      vertex 8717.409180 16784.179688 1094.093140
    endloop
  endfacet
  facet normal 0.000000 0.000000 1.000000
    outer loop
      vertex 8717.409180 16784.179688 1094.093140
      vertex 6737.509766 15857.870117 1094.093140
      vertex 7264.305176 15331.070312 1094.093140
    endloop
  endfacet
  facet normal -1.000000 0.000000 0.000000
    outer loop
      vertex 6737.509766 16253.849609 1064.093140
      vertex 6737.509766 15857.870117 1064.093140
      vertex 6737.509766 16253.849609 1094.093140
    endloop
  endfacet
  facet normal -1.000000 -0.000000 0.000000
    outer loop
      vertex 6737.509766 16253.849609 1094.093140
      vertex 6737.509766 15857.870117 1064.093140
      vertex 6737.509766 15857.870117 1094.093140
    endloop
  endfacet
  facet normal -0.707105 0.707109 0.000000
    outer loop
      vertex 6737.509766 16253.849609 1064.093140
      vertex 6737.509766 16253.849609 1094.093140
      vertex 7794.634766 17310.968750 1064.093140
    endloop
  endfacet
  facet normal -0.707105 0.707109 0.000000
    outer loop
      vertex 7794.634766 17310.968750 1064.093140
      vertex 6737.509766 16253.849609 1094.093140
      vertex 7794.634766 17310.968750 1094.093140
    endloop
  endfacet
  facet normal 0.000000 1.000000 -0.000000
    outer loop
      vertex 8190.615234 17310.968750 1064.093140
      vertex 7794.634766 17310.968750 1064.093140
      vertex 8190.615234 17310.968750 1094.093140
    endloop
  endfacet
  facet normal 0.000000 1.000000 0.000000
    outer loop
      vertex 8190.615234 17310.968750 1094.093140
      vertex 7794.634766 17310.968750 1064.093140
      vertex 7794.634766 17310.968750 1094.093140
    endloop
  endfacet
  facet normal 0.707103 0.707110 -0.000000
    outer loop
      vertex 8190.615234 17310.968750 1064.093140
      vertex 8190.615234 17310.968750 1094.093140
      vertex 8717.409180 16784.179688 1064.093140
    endloop
  endfacet
  facet normal 0.707103 0.707110 -0.000000
    outer loop
      vertex 8717.409180 16784.179688 1064.093140
      vertex 8190.615234 17310.968750 1094.093140
      vertex 8717.409180 16784.179688 1094.093140
    endloop
  endfacet
  facet normal 0.707108 -0.707106 0.000000
    outer loop
      vertex 7264.305176 15331.070312 1064.093140
      vertex 8717.409180 16784.179688 1064.093140
      vertex 7264.305176 15331.070312 1094.093140
    endloop
  endfacet
  facet normal 0.707108 -0.707106 0.000000
    outer loop
      vertex 7264.305176 15331.070312 1094.093140
      vertex 8717.409180 16784.179688 1064.093140
      vertex 8717.409180 16784.179688 1094.093140
    endloop
  endfacet
  facet normal -0.707110 -0.707104 -0.000000
    outer loop
      vertex 6737.509766 15857.870117 1094.093140
      vertex 6737.509766 15857.870117 1064.093140
      vertex 7264.305176 15331.070312 1094.093140
    endloop
  endfacet
  facet normal -0.707110 -0.707104 -0.000000
    outer loop
      vertex 7264.305176 15331.070312 1094.093140
      vertex 6737.509766 15857.870117 1064.093140
      vertex 7264.305176 15331.070312 1064.093140
    endloop
  endfacet
  facet normal 0.000000 -0.000000 -1.000000
    outer loop
      vertex 7794.634766 17310.968750 1064.093140
      vertex 8190.615234 17310.968750 1064.093140
      vertex 6737.509766 16253.849609 1064.093140
    endloop
  endfacet
  facet normal 0.000000 0.000000 -1.000000
    outer loop
      vertex 6737.509766 16253.849609 1064.093140
      vertex 8190.615234 17310.968750 1064.093140
      vertex 8717.409180 16784.179688 1064.093140
    endloop
  endfacet
  facet normal 0.000000 0.000000 -1.000000
    outer loop
      vertex 6737.509766 16253.849609 1064.093140
      vertex 8717.409180 16784.179688 1064.093140
      vertex 6737.509766 15857.870117 1064.093140
    endloop
  endfacet
  facet normal 0.000000 0.000000 -1.000000
    outer loop
      vertex 6737.509766 15857.870117 1064.093140
      vertex 8717.409180 16784.179688 1064.093140
      vertex 7264.305176 15331.070312 1064.093140
    endloop
  endfacet
  facet normal 0.000000 -0.000000 1.000000
    outer loop
      vertex 8187.323242 14804.519531 1094.093140
      vertex 9244.448242 15861.650391 1094.093140
      vertex 7791.344238 14804.519531 1094.093140
    endloop
  endfacet
  facet normal 0.000000 0.000000 1.000000
    outer loop
      vertex 7791.344238 14804.519531 1094.093140
      vertex 9244.448242 15861.650391 1094.093140
      vertex 9244.448242 16257.629883 1094.093140
    endloop
  endfacet
  facet normal 0.000000 -0.000000 1.000000
    outer loop
      vertex 7791.344238 14804.519531 1094.093140
      vertex 9244.448242 16257.629883 1094.093140
      vertex 7264.548828 15331.320312 1094.093140
    endloop
  endfacet
  facet normal 0.000000 0.000000 1.000000
    outer loop
      vertex 7264.548828 15331.320312 1094.093140
      vertex 9244.448242 16257.629883 1094.093140
      vertex 8717.652344 16784.419922 1094.093140
    endloop
  endfacet
  facet normal 1.000000 0.000000 0.000000
    outer loop
      vertex 9244.448242 15861.650391 1064.093140
      vertex 9244.448242 16257.629883 1064.093140
      vertex 9244.448242 15861.650391 1094.093140
    endloop
  endfacet
  facet normal 1.000000 -0.000000 0.000000
    outer loop
      vertex 9244.448242 15861.650391 1094.093140
      vertex 9244.448242 16257.629883 1064.093140
      vertex 9244.448242 16257.629883 1094.093140
    endloop
  endfacet
  facet normal 0.707109 -0.707105 0.000000
    outer loop
      vertex 9244.448242 15861.650391 1064.093140
      vertex 9244.448242 15861.650391 1094.093140
      vertex 8187.323242 14804.519531 1064.093140
    endloop
  endfacet
  facet normal 0.707109 -0.707105 0.000000
    outer loop
      vertex 8187.323242 14804.519531 1064.093140
      vertex 9244.448242 15861.650391 1094.093140
      vertex 8187.323242 14804.519531 1094.093140
    endloop
  endfacet
  facet normal 0.000000 -1.000000 0.000000
    outer loop
      vertex 7791.344238 14804.519531 1064.093140
      vertex 8187.323242 14804.519531 1064.093140
      vertex 7791.344238 14804.519531 1094.093140
    endloop
  endfacet
  facet normal 0.000000 -1.000000 0.000000
    outer loop
      vertex 7791.344238 14804.519531 1094.093140
      vertex 8187.323242 14804.519531 1064.093140
      vertex 8187.323242 14804.519531 1094.093140
    endloop
  endfacet
  facet normal -0.707110 -0.707103 0.000000
    outer loop
      vertex 7791.344238 14804.519531 1064.093140
      vertex 7791.344238 14804.519531 1094.093140
      vertex 7264.548828 15331.320312 1064.093140
    endloop
  endfacet
  facet normal -0.707110 -0.707103 0.000000
    outer loop
      vertex 7264.548828 15331.320312 1064.093140
      vertex 7791.344238 14804.519531 1094.093140
      vertex 7264.548828 15331.320312 1094.093140
    endloop
  endfacet
  facet normal -0.707106 0.707108 0.000000
    outer loop
      vertex 8717.652344 16784.419922 1064.093140
      vertex 7264.548828 15331.320312 1064.093140
      vertex 8717.652344 16784.419922 1094.093140
    endloop
  endfacet
  facet normal -0.707106 0.707108 0.000000
    outer loop
      vertex 8717.652344 16784.419922 1094.093140
      vertex 7264.548828 15331.320312 1064.093140
      vertex 7264.548828 15331.320312 1094.093140
    endloop
  endfacet
  facet normal 0.707103 0.707111 0.000000
    outer loop
      vertex 9244.448242 16257.629883 1094.093140
      vertex 9244.448242 16257.629883 1064.093140
      vertex 8717.652344 16784.419922 1094.093140
    endloop
  endfacet
  facet normal 0.707103 0.707111 0.000000
    outer loop
      vertex 8717.652344 16784.419922 1094.093140
      vertex 9244.448242 16257.629883 1064.093140
      vertex 8717.652344 16784.419922 1064.093140
    endloop
  endfacet
  facet normal 0.000000 0.000000 -1.000000
    outer loop
      vertex 8187.323242 14804.519531 1064.093140
      vertex 7791.344238 14804.519531 1064.093140
      vertex 9244.448242 15861.650391 1064.093140
    endloop
  endfacet
  facet normal 0.000000 0.000000 -1.000000
    outer loop
      vertex 9244.448242 15861.650391 1064.093140
      vertex 7791.344238 14804.519531 1064.093140
      vertex 7264.548828 15331.320312 1064.093140
    endloop
  endfacet
  facet normal -0.000000 0.000000 -1.000000
    outer loop
      vertex 9244.448242 15861.650391 1064.093140
      vertex 7264.548828 15331.320312 1064.093140
      vertex 9244.448242 16257.629883 1064.093140
    endloop
  endfacet
  facet normal -0.000000 0.000000 -1.000000
    outer loop
      vertex 9244.448242 16257.629883 1064.093140
      vertex 7264.548828 15331.320312 1064.093140
      vertex 8717.652344 16784.419922 1064.093140
    endloop
  endfacet
  facet normal -1.000000 0.000000 0.000000
    outer loop
      vertex 6000.125000 14056.099609 3101.405029
      vertex 6000.125000 18056.099609 3101.405029
      vertex 6000.125000 14056.099609 3071.405029
    endloop
  endfacet
  facet normal -1.000000 0.000000 0.000000
    outer loop
      vertex 6000.125000 14056.099609 3071.405029
      vertex 6000.125000 18056.099609 3101.405029
      vertex 6000.125000 18056.099609 3071.405029
    endloop
  endfacet
  facet normal -0.000000 -1.000000 -0.000000
    outer loop
      vertex 10000.125000 14056.099609 3101.405029
      vertex 6000.125000 14056.099609 3101.405029
      vertex 10000.125000 14056.099609 3071.405029
    endloop
  endfacet
  facet normal 0.000000 -1.000000 0.000000
    outer loop
      vertex 10000.125000 14056.099609 3071.405029
      vertex 6000.125000 14056.099609 3101.405029
      vertex 6000.125000 14056.099609 3071.405029
    endloop
  endfacet
  facet normal 1.000000 0.000000 0.000000
    outer loop
      vertex 10000.125000 18056.099609 3101.405029
      vertex 10000.125000 14056.099609 3101.405029
      vertex 10000.125000 18056.099609 3071.405029
    endloop
  endfacet
  facet normal 1.000000 0.000000 0.000000
    outer loop
      vertex 10000.125000 18056.099609 3071.405029
      vertex 10000.125000 14056.099609 3101.405029
      vertex 10000.125000 14056.099609 3071.405029
    endloop
  endfacet
  facet normal -0.000000 1.000000 0.000000
    outer loop
      vertex 6000.125000 18056.099609 3101.405029
      vertex 10000.125000 18056.099609 3101.405029
      vertex 6000.125000 18056.099609 3071.405029
    endloop
  endfacet
  facet normal 0.000000 1.000000 0.000000
    outer loop
      vertex 6000.125000 18056.099609 3071.405029
      vertex 10000.125000 18056.099609 3101.405029
      vertex 10000.125000 18056.099609 3071.405029
    endloop
  endfacet
  facet normal -0.000000 0.000000 1.000000
    outer loop
      vertex 8780.125000 15276.099609 3101.405029
      vertex 10000.125000 14056.099609 3101.405029
      vertex 8780.125000 15744.330078 3101.405029
    endloop
  endfacet
  facet normal -0.000000 0.000000 1.000000
    outer loop
      vertex 8780.125000 15744.330078 3101.405029
      vertex 10000.125000 14056.099609 3101.405029
      vertex 8818.357422 15866.110352 3101.405029
    endloop
  endfacet
  facet normal 0.000000 0.000000 1.000000
    outer loop
      vertex 10000.125000 14056.099609 3101.405029
      vertex 8063.944824 15218.530273 3101.405029
      vertex 6000.125000 14056.099609 3101.405029
    endloop
  endfacet
  facet normal 0.000000 0.000000 1.000000
    outer loop
      vertex 6000.125000 14056.099609 3101.405029
      vertex 8063.944824 15218.530273 3101.405029
      vertex 7936.304199 15218.530273 3101.405029
    endloop
  endfacet
  facet normal 0.000000 0.000000 1.000000
    outer loop
      vertex 6000.125000 14056.099609 3101.405029
      vertex 7936.304199 15218.530273 3101.405029
      vertex 7810.136230 15237.870117 3101.405029
    endloop
  endfacet
  facet normal -0.000000 0.000000 1.000000
    outer loop
      vertex 8780.125000 16367.870117 3101.405029
      vertex 8818.357422 16246.089844 3101.405029
      vertex 10000.125000 18056.099609 3101.405029
    endloop
  endfacet
  facet normal 0.000000 0.000000 1.000000
    outer loop
      vertex 10000.125000 18056.099609 3101.405029
      vertex 8818.357422 16246.089844 3101.405029
      vertex 8837.697266 16119.919922 3101.405029
    endloop
  endfacet
  facet normal 0.000000 0.000000 1.000000
    outer loop
      vertex 10000.125000 18056.099609 3101.405029
      vertex 8837.697266 16119.919922 3101.405029
      vertex 10000.125000 14056.099609 3101.405029
    endloop
  endfacet
  facet normal 0.000000 0.000000 1.000000
    outer loop
      vertex 10000.125000 14056.099609 3101.405029
      vertex 8837.697266 16119.919922 3101.405029
      vertex 8837.697266 15992.280273 3101.405029
    endloop
  endfacet
  facet normal 0.000000 0.000000 1.000000
    outer loop
      vertex 10000.125000 14056.099609 3101.405029
      vertex 8837.697266 15992.280273 3101.405029
      vertex 8818.357422 15866.110352 3101.405029
    endloop
  endfacet
  facet normal 0.000000 0.000000 1.000000
    outer loop
      vertex 8780.125000 15276.099609 3101.405029
      vertex 8311.894531 15276.099609 3101.405029
      vertex 10000.125000 14056.099609 3101.405029
    endloop
  endfacet
  facet normal 0.000000 0.000000 1.000000
    outer loop
      vertex 10000.125000 14056.099609 3101.405029
      vertex 8311.894531 15276.099609 3101.405029
      vertex 8190.112793 15237.870117 3101.405029
    endloop
  endfacet
  facet normal 0.000000 0.000000 1.000000
    outer loop
      vertex 10000.125000 14056.099609 3101.405029
      vertex 8190.112793 15237.870117 3101.405029
      vertex 8063.944824 15218.530273 3101.405029
    endloop
  endfacet
  facet normal 0.000000 0.000000 1.000000
    outer loop
      vertex 7810.136230 15237.870117 3101.405029
      vertex 7688.355957 15276.099609 3101.405029
      vertex 6000.125000 14056.099609 3101.405029
    endloop
  endfacet
  facet normal 0.000000 0.000000 1.000000
    outer loop
      vertex 6000.125000 14056.099609 3101.405029
      vertex 7688.355957 15276.099609 3101.405029
      vertex 7220.125000 15276.099609 3101.405029
    endloop
  endfacet
  facet normal 0.000000 0.000000 1.000000
    outer loop
      vertex 6000.125000 14056.099609 3101.405029
      vertex 7220.125000 15276.099609 3101.405029
      vertex 7220.125000 15744.330078 3101.405029
    endloop
  endfacet
  facet normal 0.000000 -0.000000 1.000000
    outer loop
      vertex 7181.892090 16246.089844 3101.405029
      vertex 7220.125000 16367.870117 3101.405029
      vertex 6000.125000 18056.099609 3101.405029
    endloop
  endfacet
  facet normal 0.000000 0.000000 1.000000
    outer loop
      vertex 6000.125000 18056.099609 3101.405029
      vertex 7220.125000 16367.870117 3101.405029
      vertex 7220.125000 16836.099609 3101.405029
    endloop
  endfacet
  facet normal 0.000000 0.000000 1.000000
    outer loop
      vertex 6000.125000 18056.099609 3101.405029
      vertex 7220.125000 16836.099609 3101.405029
      vertex 7688.355957 16836.099609 3101.405029
    endloop
  endfacet
  facet normal 0.000000 0.000000 1.000000
    outer loop
      vertex 7220.125000 15744.330078 3101.405029
      vertex 7181.892090 15866.110352 3101.405029
      vertex 6000.125000 14056.099609 3101.405029
    endloop
  endfacet
  facet normal 0.000000 0.000000 1.000000
    outer loop
      vertex 6000.125000 14056.099609 3101.405029
      vertex 7181.892090 15866.110352 3101.405029
      vertex 7162.552734 15992.280273 3101.405029
    endloop
  endfacet
  facet normal 0.000000 0.000000 1.000000
    outer loop
      vertex 6000.125000 14056.099609 3101.405029
      vertex 7162.552734 15992.280273 3101.405029
      vertex 6000.125000 18056.099609 3101.405029
    endloop
  endfacet
  facet normal 0.000000 0.000000 1.000000
    outer loop
      vertex 6000.125000 18056.099609 3101.405029
      vertex 7162.552734 15992.280273 3101.405029
      vertex 7162.552734 16119.919922 3101.405029
    endloop
  endfacet
  facet normal 0.000000 0.000000 1.000000
    outer loop
      vertex 6000.125000 18056.099609 3101.405029
      vertex 7162.552734 16119.919922 3101.405029
      vertex 7181.892090 16246.089844 3101.405029
    endloop
  endfacet
  facet normal -0.000000 0.000000 1.000000
    outer loop
      vertex 8190.112793 16874.330078 3101.405029
      vertex 8311.894531 16836.099609 3101.405029
      vertex 10000.125000 18056.099609 3101.405029
    endloop
  endfacet
  facet normal 0.000000 0.000000 1.000000
    outer loop
      vertex 10000.125000 18056.099609 3101.405029
      vertex 8311.894531 16836.099609 3101.405029
      vertex 8780.125000 16836.099609 3101.405029
    endloop
  endfacet
  facet normal 0.000000 0.000000 1.000000
    outer loop
      vertex 10000.125000 18056.099609 3101.405029
      vertex 8780.125000 16836.099609 3101.405029
      vertex 8780.125000 16367.870117 3101.405029
    endloop
  endfacet
  facet normal 0.000000 -0.000000 1.000000
    outer loop
      vertex 7688.355957 16836.099609 3101.405029
      vertex 7810.136230 16874.330078 3101.405029
      vertex 6000.125000 18056.099609 3101.405029
    endloop
  endfacet
  facet normal 0.000000 0.000000 1.000000
    outer loop
      vertex 6000.125000 18056.099609 3101.405029
      vertex 7810.136230 16874.330078 3101.405029
      vertex 7936.304199 16893.669922 3101.405029
    endloop
  endfacet
  facet normal -0.000000 0.000000 1.000000
    outer loop
      vertex 6000.125000 18056.099609 3101.405029
      vertex 7936.304199 16893.669922 3101.405029
      vertex 10000.125000 18056.099609 3101.405029
    endloop
  endfacet
  facet normal 0.000000 0.000000 1.000000
    outer loop
      vertex 10000.125000 18056.099609 3101.405029
      vertex 7936.304199 16893.669922 3101.405029
      vertex 8063.944824 16893.669922 3101.405029
    endloop
  endfacet
  facet normal 0.000000 0.000000 1.000000
    outer loop
      vertex 10000.125000 18056.099609 3101.405029
      vertex 8063.944824 16893.669922 3101.405029
      vertex 8190.112793 16874.330078 3101.405029
    endloop
  endfacet
  facet normal -0.000000 0.000000 -1.000000
    outer loop
      vertex 7220.125000 16367.870117 3071.405029
      vertex 7181.892090 16246.089844 3071.405029
      vertex 6000.125000 18056.099609 3071.405029
    endloop
  endfacet
  facet normal 0.000000 0.000000 -1.000000
    outer loop
      vertex 6000.125000 18056.099609 3071.405029
      vertex 7181.892090 16246.089844 3071.405029
      vertex 7162.552734 16119.919922 3071.405029
    endloop
  endfacet
  facet normal 0.000000 0.000000 -1.000000
    outer loop
      vertex 6000.125000 18056.099609 3071.405029
      vertex 7162.552734 16119.919922 3071.405029
      vertex 6000.125000 14056.099609 3071.405029
    endloop
  endfacet
  facet normal 0.000000 0.000000 -1.000000
    outer loop
      vertex 6000.125000 14056.099609 3071.405029
      vertex 7162.552734 16119.919922 3071.405029
      vertex 7162.552734 15992.280273 3071.405029
    endloop
  endfacet
  facet normal 0.000000 0.000000 -1.000000
    outer loop
      vertex 6000.125000 14056.099609 3071.405029
      vertex 7162.552734 15992.280273 3071.405029
      vertex 7181.892090 15866.110352 3071.405029
    endloop
  endfacet
  facet normal 0.000000 -0.000000 -1.000000
    outer loop
      vertex 7181.892090 15866.110352 3071.405029
      vertex 7220.125000 15744.330078 3071.405029
      vertex 6000.125000 14056.099609 3071.405029
    endloop
  endfacet
  facet normal 0.000000 0.000000 -1.000000
    outer loop
      vertex 6000.125000 14056.099609 3071.405029
      vertex 7220.125000 15744.330078 3071.405029
      vertex 7220.125000 15276.099609 3071.405029
    endloop
  endfacet
  facet normal 0.000000 0.000000 -1.000000
    outer loop
      vertex 6000.125000 14056.099609 3071.405029
      vertex 7220.125000 15276.099609 3071.405029
      vertex 7688.355957 15276.099609 3071.405029
    endloop
  endfacet
  facet normal 0.000000 -0.000000 -1.000000
    outer loop
      vertex 7688.355957 15276.099609 3071.405029
      vertex 7810.136230 15237.870117 3071.405029
      vertex 6000.125000 14056.099609 3071.405029
    endloop
  endfacet
  facet normal 0.000000 0.000000 -1.000000
    outer loop
      vertex 6000.125000 14056.099609 3071.405029
      vertex 7810.136230 15237.870117 3071.405029
      vertex 7936.304199 15218.530273 3071.405029
    endloop
  endfacet
  facet normal 0.000000 0.000000 -1.000000
    outer loop
      vertex 6000.125000 14056.099609 3071.405029
      vertex 7936.304199 15218.530273 3071.405029
      vertex 10000.125000 14056.099609 3071.405029
    endloop
  endfacet
  facet normal 0.000000 0.000000 -1.000000
    outer loop
      vertex 10000.125000 14056.099609 3071.405029
      vertex 7936.304199 15218.530273 3071.405029
      vertex 8063.944824 15218.530273 3071.405029
    endloop
  endfacet
  facet normal 0.000000 0.000000 -1.000000
    outer loop
      vertex 10000.125000 14056.099609 3071.405029
      vertex 8063.944824 15218.530273 3071.405029
      vertex 8190.112793 15237.870117 3071.405029
    endloop
  endfacet
  facet normal 0.000000 0.000000 -1.000000
    outer loop
      vertex 8818.357422 16246.089844 3071.405029
      vertex 8780.125000 16367.870117 3071.405029
      vertex 10000.125000 18056.099609 3071.405029
    endloop
  endfacet
  facet normal 0.000000 0.000000 -1.000000
    outer loop
      vertex 10000.125000 18056.099609 3071.405029
      vertex 8780.125000 16367.870117 3071.405029
      vertex 8780.125000 16836.099609 3071.405029
    endloop
  endfacet
  facet normal 0.000000 0.000000 -1.000000
    outer loop
      vertex 10000.125000 18056.099609 3071.405029
      vertex 8780.125000 16836.099609 3071.405029
      vertex 8311.894531 16836.099609 3071.405029
    endloop
  endfacet
  facet normal 0.000000 0.000000 -1.000000
    outer loop
      vertex 8190.112793 15237.870117 3071.405029
      vertex 8311.894531 15276.099609 3071.405029
      vertex 10000.125000 14056.099609 3071.405029
    endloop
  endfacet
  facet normal 0.000000 0.000000 -1.000000
    outer loop
      vertex 10000.125000 14056.099609 3071.405029
      vertex 8311.894531 15276.099609 3071.405029
      vertex 8780.125000 15276.099609 3071.405029
    endloop
  endfacet
  facet normal 0.000000 0.000000 -1.000000
    outer loop
      vertex 10000.125000 14056.099609 3071.405029
      vertex 8780.125000 15276.099609 3071.405029
      vertex 8780.125000 15744.330078 3071.405029
    endloop
  endfacet
  facet normal 0.000000 0.000000 -1.000000
    outer loop
      vertex 8780.125000 15744.330078 3071.405029
      vertex 8818.357422 15866.110352 3071.405029
      vertex 10000.125000 14056.099609 3071.405029
    endloop
  endfacet
  facet normal 0.000000 0.000000 -1.000000
    outer loop
      vertex 10000.125000 14056.099609 3071.405029
      vertex 8818.357422 15866.110352 3071.405029
      vertex 8837.697266 15992.280273 3071.405029
    endloop
  endfacet
  facet normal 0.000000 0.000000 -1.000000
    outer loop
      vertex 10000.125000 14056.099609 3071.405029
      vertex 8837.697266 15992.280273 3071.405029
      vertex 10000.125000 18056.099609 3071.405029
    endloop
  endfacet
  facet normal 0.000000 0.000000 -1.000000
    outer loop
      vertex 10000.125000 18056.099609 3071.405029
      vertex 8837.697266 15992.280273 3071.405029
      vertex 8837.697266 16119.919922 3071.405029
    endloop
  endfacet
  facet normal 0.000000 0.000000 -1.000000
    outer loop
      vertex 10000.125000 18056.099609 3071.405029
      vertex 8837.697266 16119.919922 3071.405029
      vertex 8818.357422 16246.089844 3071.405029
    endloop
  endfacet
  facet normal -0.000000 0.000000 -1.000000
    outer loop
      vertex 7810.136230 16874.330078 3071.405029
      vertex 7688.355957 16836.099609 3071.405029
      vertex 6000.125000 18056.099609 3071.405029
    endloop
  endfacet
  facet normal 0.000000 0.000000 -1.000000
    outer loop
      vertex 6000.125000 18056.099609 3071.405029
      vertex 7688.355957 16836.099609 3071.405029
      vertex 7220.125000 16836.099609 3071.405029
    endloop
  endfacet
  facet normal 0.000000 0.000000 -1.000000
    outer loop
      vertex 6000.125000 18056.099609 3071.405029
      vertex 7220.125000 16836.099609 3071.405029
      vertex 7220.125000 16367.870117 3071.405029
    endloop
  endfacet
  facet normal 0.000000 0.000000 -1.000000
    outer loop
      vertex 8311.894531 16836.099609 3071.405029
      vertex 8190.112793 16874.330078 3071.405029
      vertex 10000.125000 18056.099609 3071.405029
    endloop
  endfacet
  facet normal 0.000000 0.000000 -1.000000
    outer loop
      vertex 10000.125000 18056.099609 3071.405029
      vertex 8190.112793 16874.330078 3071.405029
      vertex 8063.944824 16893.669922 3071.405029
    endloop
  endfacet
  facet normal -0.000000 0.000000 -1.000000
    outer loop
      vertex 10000.125000 18056.099609 3071.405029
      vertex 8063.944824 16893.669922 3071.405029
      vertex 6000.125000 18056.099609 3071.405029
    endloop
  endfacet
  facet normal 0.000000 0.000000 -1.000000
    outer loop
      vertex 6000.125000 18056.099609 3071.405029
      vertex 8063.944824 16893.669922 3071.405029
      vertex 7936.304199 16893.669922 3071.405029
    endloop
  endfacet
  facet normal 0.000000 0.000000 -1.000000
    outer loop
      vertex 6000.125000 18056.099609 3071.405029
      vertex 7936.304199 16893.669922 3071.405029
      vertex 7810.136230 16874.330078 3071.405029
    endloop
  endfacet
  facet normal -0.299507 0.954094 0.000000
    outer loop
      vertex 8311.894531 15276.099609 3101.405029
      vertex 8311.894531 15276.099609 3071.405029
      vertex 8190.112793 15237.870117 3101.405029
    endloop
  endfacet
  facet normal -0.299507 0.954094 0.000000
    outer loop
      vertex 8190.112793 15237.870117 3101.405029
      vertex 8311.894531 15276.099609 3071.405029
      vertex 8190.112793 15237.870117 3071.405029
    endloop
  endfacet
  facet normal -0.151517 0.988455 0.000000
    outer loop
      vertex 8190.112793 15237.870117 3101.405029
      vertex 8190.112793 15237.870117 3071.405029
      vertex 8063.944824 15218.530273 3101.405029
    endloop
  endfacet
  facet normal -0.151517 0.988455 0.000000
    outer loop
      vertex 8063.944824 15218.530273 3101.405029
      vertex 8190.112793 15237.870117 3071.405029
      vertex 8063.944824 15218.530273 3071.405029
    endloop
  endfacet
  facet normal 0.000000 1.000000 0.000000
    outer loop
      vertex 8063.944824 15218.530273 3101.405029
      vertex 8063.944824 15218.530273 3071.405029
      vertex 7936.304199 15218.530273 3101.405029
    endloop
  endfacet
  facet normal 0.000000 1.000000 0.000000
    outer loop
      vertex 7936.304199 15218.530273 3101.405029
      vertex 8063.944824 15218.530273 3071.405029
      vertex 7936.304199 15218.530273 3071.405029
    endloop
  endfacet
  facet normal 0.151517 0.988455 0.000000
    outer loop
      vertex 7936.304199 15218.530273 3101.405029
      vertex 7936.304199 15218.530273 3071.405029
      vertex 7810.136230 15237.870117 3101.405029
    endloop
  endfacet
  facet normal 0.151517 0.988455 0.000000
    outer loop
      vertex 7810.136230 15237.870117 3101.405029
      vertex 7936.304199 15218.530273 3071.405029
      vertex 7810.136230 15237.870117 3071.405029
    endloop
  endfacet
  facet normal 0.299511 0.954093 0.000000
    outer loop
      vertex 7810.136230 15237.870117 3101.405029
      vertex 7810.136230 15237.870117 3071.405029
      vertex 7688.355957 15276.099609 3101.405029
    endloop
  endfacet
  facet normal 0.299511 0.954093 0.000000
    outer loop
      vertex 7688.355957 15276.099609 3101.405029
      vertex 7810.136230 15237.870117 3071.405029
      vertex 7688.355957 15276.099609 3071.405029
    endloop
  endfacet
  facet normal -0.000000 1.000000 0.000000
    outer loop
      vertex 8311.894531 15276.099609 3101.405029
      vertex 8780.125000 15276.099609 3101.405029
      vertex 8311.894531 15276.099609 3071.405029
    endloop
  endfacet
  facet normal 0.000000 1.000000 0.000000
    outer loop
      vertex 8311.894531 15276.099609 3071.405029
      vertex 8780.125000 15276.099609 3101.405029
      vertex 8780.125000 15276.099609 3071.405029
    endloop
  endfacet
  facet normal -1.000000 0.000000 0.000000
    outer loop
      vertex 8780.125000 15276.099609 3101.405029
      vertex 8780.125000 15744.330078 3101.405029
      vertex 8780.125000 15276.099609 3071.405029
    endloop
  endfacet
  facet normal -1.000000 0.000000 0.000000
    outer loop
      vertex 8780.125000 15276.099609 3071.405029
      vertex 8780.125000 15744.330078 3101.405029
      vertex 8780.125000 15744.330078 3071.405029
    endloop
  endfacet
  facet normal -0.954086 -0.299532 -0.000000
    outer loop
      vertex 8780.125000 16367.870117 3101.405029
      vertex 8780.125000 16367.870117 3071.405029
      vertex 8818.357422 16246.089844 3101.405029
    endloop
  endfacet
  facet normal -0.954086 -0.299532 -0.000000
    outer loop
      vertex 8818.357422 16246.089844 3101.405029
      vertex 8780.125000 16367.870117 3071.405029
      vertex 8818.357422 16246.089844 3071.405029
    endloop
  endfacet
  facet normal -0.988455 -0.151514 -0.000000
    outer loop
      vertex 8818.357422 16246.089844 3101.405029
      vertex 8818.357422 16246.089844 3071.405029
      vertex 8837.697266 16119.919922 3101.405029
    endloop
  endfacet
  facet normal -0.988455 -0.151514 -0.000000
    outer loop
      vertex 8837.697266 16119.919922 3101.405029
      vertex 8818.357422 16246.089844 3071.405029
      vertex 8837.697266 16119.919922 3071.405029
    endloop
  endfacet
  facet normal -1.000000 -0.000000 -0.000000
    outer loop
      vertex 8837.697266 16119.919922 3101.405029
      vertex 8837.697266 16119.919922 3071.405029
      vertex 8837.697266 15992.280273 3101.405029
    endloop
  endfacet
  facet normal -1.000000 0.000000 0.000000
    outer loop
      vertex 8837.697266 15992.280273 3101.405029
      vertex 8837.697266 16119.919922 3071.405029
      vertex 8837.697266 15992.280273 3071.405029
    endloop
  endfacet
  facet normal -0.988455 0.151514 0.000000
    outer loop
      vertex 8837.697266 15992.280273 3101.405029
      vertex 8837.697266 15992.280273 3071.405029
      vertex 8818.357422 15866.110352 3101.405029
    endloop
  endfacet
  facet normal -0.988455 0.151514 0.000000
    outer loop
      vertex 8818.357422 15866.110352 3101.405029
      vertex 8837.697266 15992.280273 3071.405029
      vertex 8818.357422 15866.110352 3071.405029
    endloop
  endfacet
  facet normal -0.954086 0.299532 0.000000
    outer loop
      vertex 8818.357422 15866.110352 3101.405029
      vertex 8818.357422 15866.110352 3071.405029
      vertex 8780.125000 15744.330078 3101.405029
    endloop
  endfacet
  facet normal -0.954086 0.299532 0.000000
    outer loop
      vertex 8780.125000 15744.330078 3101.405029
      vertex 8818.357422 15866.110352 3071.405029
      vertex 8780.125000 15744.330078 3071.405029
    endloop
  endfacet
  facet normal -1.000000 0.000000 0.000000
    outer loop
      vertex 8780.125000 16367.870117 3101.405029
      vertex 8780.125000 16836.099609 3101.405029
      vertex 8780.125000 16367.870117 3071.405029
    endloop
  endfacet
  facet normal -1.000000 0.000000 0.000000
    outer loop
      vertex 8780.125000 16367.870117 3071.405029
      vertex 8780.125000 16836.099609 3101.405029
      vertex 8780.125000 16836.099609 3071.405029
    endloop
  endfacet
  facet normal -0.000000 -1.000000 -0.000000
    outer loop
      vertex 8780.125000 16836.099609 3101.405029
      vertex 8311.894531 16836.099609 3101.405029
      vertex 8780.125000 16836.099609 3071.405029
    endloop
  endfacet
  facet normal 0.000000 -1.000000 0.000000
    outer loop
      vertex 8780.125000 16836.099609 3071.405029
      vertex 8311.894531 16836.099609 3101.405029
      vertex 8311.894531 16836.099609 3071.405029
    endloop
  endfacet
  facet normal 0.299518 -0.954091 0.000000
    outer loop
      vertex 7688.355957 16836.099609 3101.405029
      vertex 7688.355957 16836.099609 3071.405029
      vertex 7810.136230 16874.330078 3101.405029
    endloop
  endfacet
  facet normal 0.299518 -0.954091 0.000000
    outer loop
      vertex 7810.136230 16874.330078 3101.405029
      vertex 7688.355957 16836.099609 3071.405029
      vertex 7810.136230 16874.330078 3071.405029
    endloop
  endfacet
  facet normal 0.151517 -0.988455 0.000000
    outer loop
      vertex 7810.136230 16874.330078 3101.405029
      vertex 7810.136230 16874.330078 3071.405029
      vertex 7936.304199 16893.669922 3101.405029
    endloop
  endfacet
  facet normal 0.151517 -0.988455 0.000000
    outer loop
      vertex 7936.304199 16893.669922 3101.405029
      vertex 7810.136230 16874.330078 3071.405029
      vertex 7936.304199 16893.669922 3071.405029
    endloop
  endfacet
  facet normal 0.000000 -1.000000 0.000000
    outer loop
      vertex 7936.304199 16893.669922 3101.405029
      vertex 7936.304199 16893.669922 3071.405029
      vertex 8063.944824 16893.669922 3101.405029
    endloop
  endfacet
  facet normal 0.000000 -1.000000 -0.000000
    outer loop
      vertex 8063.944824 16893.669922 3101.405029
      vertex 7936.304199 16893.669922 3071.405029
      vertex 8063.944824 16893.669922 3071.405029
    endloop
  endfacet
  facet normal -0.151517 -0.988455 -0.000000
    outer loop
      vertex 8063.944824 16893.669922 3101.405029
      vertex 8063.944824 16893.669922 3071.405029
      vertex 8190.112793 16874.330078 3101.405029
    endloop
  endfacet
  facet normal -0.151517 -0.988455 -0.000000
    outer loop
      vertex 8190.112793 16874.330078 3101.405029
      vertex 8063.944824 16893.669922 3071.405029
      vertex 8190.112793 16874.330078 3071.405029
    endloop
  endfacet
  facet normal -0.299514 -0.954092 -0.000000
    outer loop
      vertex 8190.112793 16874.330078 3101.405029
      vertex 8190.112793 16874.330078 3071.405029
      vertex 8311.894531 16836.099609 3101.405029
    endloop
  endfacet
  facet normal -0.299514 -0.954092 -0.000000
    outer loop
      vertex 8311.894531 16836.099609 3101.405029
      vertex 8190.112793 16874.330078 3071.405029
      vertex 8311.894531 16836.099609 3071.405029
    endloop
  endfacet
  facet normal -0.000000 -1.000000 -0.000000
    outer loop
      vertex 7688.355957 16836.099609 3101.405029
      vertex 7220.125000 16836.099609 3101.405029
      vertex 7688.355957 16836.099609 3071.405029
    endloop
  endfacet
  facet normal 0.000000 -1.000000 0.000000
    outer loop
      vertex 7688.355957 16836.099609 3071.405029
      vertex 7220.125000 16836.099609 3101.405029
      vertex 7220.125000 16836.099609 3071.405029
    endloop
  endfacet
  facet normal 1.000000 0.000000 0.000000
    outer loop
      vertex 7220.125000 16836.099609 3101.405029
      vertex 7220.125000 16367.870117 3101.405029
      vertex 7220.125000 16836.099609 3071.405029
    endloop
  endfacet
  facet normal 1.000000 0.000000 0.000000
    outer loop
      vertex 7220.125000 16836.099609 3071.405029
      vertex 7220.125000 16367.870117 3101.405029
      vertex 7220.125000 16367.870117 3071.405029
    endloop
  endfacet
  facet normal 0.954085 0.299535 0.000000
    outer loop
      vertex 7220.125000 15744.330078 3101.405029
      vertex 7220.125000 15744.330078 3071.405029
      vertex 7181.892090 15866.110352 3101.405029
    endloop
  endfacet
  facet normal 0.954085 0.299535 0.000000
    outer loop
      vertex 7181.892090 15866.110352 3101.405029
      vertex 7220.125000 15744.330078 3071.405029
      vertex 7181.892090 15866.110352 3071.405029
    endloop
  endfacet
  facet normal 0.988456 0.151511 0.000000
    outer loop
      vertex 7181.892090 15866.110352 3101.405029
      vertex 7181.892090 15866.110352 3071.405029
      vertex 7162.552734 15992.280273 3101.405029
    endloop
  endfacet
  facet normal 0.988456 0.151511 0.000000
    outer loop
      vertex 7162.552734 15992.280273 3101.405029
      vertex 7181.892090 15866.110352 3071.405029
      vertex 7162.552734 15992.280273 3071.405029
    endloop
  endfacet
  facet normal 1.000000 -0.000000 0.000000
    outer loop
      vertex 7162.552734 15992.280273 3101.405029
      vertex 7162.552734 15992.280273 3071.405029
      vertex 7162.552734 16119.919922 3101.405029
    endloop
  endfacet
  facet normal 1.000000 0.000000 0.000000
    outer loop
      vertex 7162.552734 16119.919922 3101.405029
      vertex 7162.552734 15992.280273 3071.405029
      vertex 7162.552734 16119.919922 3071.405029
    endloop
  endfacet
  facet normal 0.988456 -0.151511 0.000000
    outer loop
      vertex 7162.552734 16119.919922 3101.405029
      vertex 7162.552734 16119.919922 3071.405029
      vertex 7181.892090 16246.089844 3101.405029
    endloop
  endfacet
  facet normal 0.988456 -0.151511 0.000000
    outer loop
      vertex 7181.892090 16246.089844 3101.405029
      vertex 7162.552734 16119.919922 3071.405029
      vertex 7181.892090 16246.089844 3071.405029
    endloop
  endfacet
  facet normal 0.954085 -0.299535 0.000000
    outer loop
      vertex 7181.892090 16246.089844 3101.405029
      vertex 7181.892090 16246.089844 3071.405029
      vertex 7220.125000 16367.870117 3101.405029
    endloop
  endfacet
  facet normal 0.954085 -0.299535 0.000000
    outer loop
      vertex 7220.125000 16367.870117 3101.405029
      vertex 7181.892090 16246.089844 3071.405029
      vertex 7220.125000 16367.870117 3071.405029
    endloop
  endfacet
  facet normal 1.000000 0.000000 0.000000
    outer loop
      vertex 7220.125000 15744.330078 3101.405029
      vertex 7220.125000 15276.099609 3101.405029
      vertex 7220.125000 15744.330078 3071.405029
    endloop
  endfacet
  facet normal 1.000000 0.000000 0.000000
    outer loop
      vertex 7220.125000 15744.330078 3071.405029
      vertex 7220.125000 15276.099609 3101.405029
      vertex 7220.125000 15276.099609 3071.405029
    endloop
  endfacet
  facet normal -0.000000 1.000000 0.000000
    outer loop
      vertex 7220.125000 15276.099609 3101.405029
      vertex 7688.355957 15276.099609 3101.405029
      vertex 7220.125000 15276.099609 3071.405029
    endloop
  endfacet
  facet normal 0.000000 1.000000 0.000000
    outer loop
      vertex 7220.125000 15276.099609 3071.405029
      vertex 7688.355957 15276.099609 3101.405029
      vertex 7688.355957 15276.099609 3071.405029
    endloop
  endfacet
endsolid Mesh
