solid Минеральная_вата_помещение
  facet normal 0.000000 -1.000000 0.000000
    outer loop
      vertex 79.124832 798.599304 10491.000000
      vertex 13869.120117 798.599304 10491.000000
      vertex 79.124832 798.599304 10891.000000
    endloop
  endfacet
  facet normal 0.000000 -1.000000 0.000000
    outer loop
      vertex 79.124832 798.599304 10891.000000
      vertex 13869.120117 798.599304 10491.000000
      vertex 13869.120117 798.599304 10891.000000
    endloop
  endfacet
  facet normal -1.000000 0.000000 0.000000
    outer loop
      vertex 79.124832 21798.599609 10491.000000
      vertex 79.124832 798.599304 10491.000000
      vertex 79.124832 21798.599609 10891.000000
    endloop
  endfacet
  facet normal -1.000000 -0.000000 0.000000
    outer loop
      vertex 79.124832 21798.599609 10891.000000
      vertex 79.124832 798.599304 10491.000000
      vertex 79.124832 798.599304 10891.000000
    endloop
  endfacet
  facet normal 0.000000 1.000000 -0.000000
    outer loop
      vertex 13869.120117 21798.599609 10491.000000
      vertex 79.124832 21798.599609 10491.000000
      vertex 13869.120117 21798.599609 10891.000000
    endloop
  endfacet
  facet normal 0.000000 1.000000 0.000000
    outer loop
      vertex 13869.120117 21798.599609 10891.000000
      vertex 79.124832 21798.599609 10491.000000
      vertex 79.124832 21798.599609 10891.000000
    endloop
  endfacet
  facet normal 1.000000 0.000000 0.000000
    outer loop
      vertex 13869.120117 798.599304 10491.000000
      vertex 13869.120117 21798.599609 10491.000000
      vertex 13869.120117 798.599304 10891.000000
    endloop
  endfacet
  facet normal 1.000000 -0.000000 0.000000
    outer loop
      vertex 13869.120117 798.599304 10891.000000
      vertex 13869.120117 21798.599609 10491.000000
      vertex 13869.120117 21798.599609 10891.000000
    endloop
  endfacet
  facet normal 0.000000 0.000000 -1.000000
    outer loop
      vertex 79.124832 21798.599609 10491.000000
      vertex 13869.120117 21798.599609 10491.000000
      vertex 79.124832 798.599304 10491.000000
    endloop
  endfacet
  facet normal 0.000000 0.000000 -1.000000
    outer loop
      vertex 79.124832 798.599304 10491.000000
      vertex 13869.120117 21798.599609 10491.000000
      vertex 13869.120117 798.599304 10491.000000
    endloop
  endfacet
  facet normal 0.000000 0.000000 1.000000
    outer loop
      vertex 13869.120117 21798.599609 10891.000000
      vertex 79.124832 21798.599609 10891.000000
      vertex 13869.120117 798.599304 10891.000000
    endloop
  endfacet
  facet normal 0.000000 0.000000 1.000000
    outer loop
      vertex 13869.120117 798.599304 10891.000000
      vertex 79.124832 21798.599609 10891.000000
      vertex 79.124832 798.599304 10891.000000
    endloop
  endfacet
endsolid Mesh
